<svg
   viewBox="0 0 356.90381 357.01645"
   version="1.1"
   id="svg8"
   width="356.90381"
   height="357.01645"
   xmlns="http://www.w3.org/2000/svg"
   xmlns:svg="http://www.w3.org/2000/svg">
  <defs
     id="defs12" />
  <g
     id="g6"
     transform="translate(-19.900463,-94.680781)" />
  <g
     id="g11797"
     transform="matrix(26.861997,0,0,26.861997,-155.86516,-104.52732)"
     style="fill:#000000;fill-opacity:1;stroke:#ffffff;stroke-width:0.96791">
    <path
       id="rect7956"
       style="color:#000000;opacity:0.99;fill:#000000;fill-opacity:1;stroke:none;stroke-width:1.34789;stroke-linejoin:round;-inkscape-stroke:none"
       d="M 12.904048,3.9063433 6.218584,5.5001925 c -0.019592,0.018569 -0.037775,0.038571 -0.054399,0.059837 -0.1165474,0.060369 -0.2073488,0.16083 -0.2556686,0.2828674 -0.034886,0.04527 -0.062422,0.095754 -0.081597,0.1495932 -0.00881,0.014123 -0.01699,0.028645 -0.024478,0.043518 l 0.078877,6.5929889 c 0.00278,0.180027 0.094423,0.347025 0.2447891,0.446059 l 6.0952495,4.044462 c 0.0018,8e-6 0.0037,8e-6 0.0054,0 0.03679,0.0065 0.07416,0.0093 0.111514,0.0082 0.134551,0.06509 0.289959,0.07199 0.42974,0.01903 0.0037,3.6e-5 0.0072,3.6e-5 0.01088,0 l 5.056256,-2.681801 c 0.153732,-0.08201 0.258897,-0.232678 0.282867,-0.405264 l 0.970998,-6.9030533 c -0.0037,-0.048267 -0.01365,-0.095823 -0.02991,-0.141433 -0.0037,-0.0608 -0.0174,-0.1205555 -0.0408,-0.176792 -0.03531,-0.055731 -0.08048,-0.1045821 -0.133269,-0.1441541 -0.02777,-0.039563 -0.0607,-0.075254 -0.0979,-0.1061284 L 13.265791,3.9444215 c -0.112649,-0.053811 -0.240364,-0.067255 -0.361743,-0.038078 z m 0.06527,1.1015511 4.319167,2.0698288 -4.240291,2.0208694 h -0.0028 L 7.8423519,6.23456 Z m -6.0680493,1.9501534 5.5621533,3.0598652 -0.416141,5.679108 -5.0807352,-3.36993 z m 10.9692733,1.0498728 -0.791484,5.6247124 -3.943826,2.091586 0.416141,-5.660068 z" />
    <g
       aria-label="3"
       id="text16861"
       style="font-size:4.13233px;line-height:1.25;letter-spacing:0px;word-spacing:0px;stroke:none;stroke-width:0.0416638"
       transform="matrix(1.7187922,1.1820678,-0.16835555,1.8276777,-6.1741249,-21.806514)">
      <path
         d="m 9.8549054,12.00482 q 0.1250998,0.340998 0.4681156,0.340998 0.179579,0 0.312749,-0.104922 0.135189,-0.106941 0.135189,-0.29459 0,-0.185632 -0.129135,-0.292573 -0.127118,-0.10694 -0.328892,-0.10694 h -0.298625 v -0.23204 h 0.296607 q 0.280466,0 0.340998,-0.145277 0.06255,-0.145277 0.06255,-0.234058 0,-0.08878 -0.0343,-0.157383 -0.03228,-0.07062 -0.112994,-0.141242 -0.08071,-0.07062 -0.246164,-0.07062 -0.236075,0 -0.318803,0.123082 -0.080709,0.123082 -0.1008866,0.207827 L 9.649096,10.804265 q 0.090798,-0.230022 0.2723948,-0.345033 0.1815962,-0.115011 0.4156542,-0.115011 0.256253,0 0.453991,0.155366 0.199757,0.155366 0.199757,0.439867 0,0.244146 -0.115012,0.347051 -0.112993,0.102905 -0.175543,0.131153 0.254235,0.110976 0.306697,0.272395 0.05448,0.161419 0.05448,0.290554 0,0.129136 -0.06255,0.248182 -0.06255,0.117029 -0.215899,0.234058 -0.15133,0.115011 -0.441884,0.115011 -0.4015305,0 -0.5609319,-0.179579 Q 9.6208477,12.2187 9.5764574,12.097636 Z"
         style="font-family:Meera;-inkscape-font-specification:Meera;fill:none;fill-opacity:1;stroke:#030303;stroke-width:0.111682;stroke-miterlimit:4;stroke-dasharray:none;stroke-opacity:1"
         id="path26875" />
    </g>
    <g
       aria-label="D"
       id="text18075"
       style="font-size:3.78057px;line-height:1.25;letter-spacing:0px;word-spacing:0px;fill:none;stroke:#030303;stroke-width:0.111682;stroke-miterlimit:4;stroke-dasharray:none;stroke-opacity:1"
       transform="matrix(1.8276777,0,-0.05751885,1.8276777,-11.850883,-9.3566922)">
      <path
         d="m 16.165393,11.153231 q -0.0125,0.252552 -0.09621,0.497954 -0.08362,0.243546 -0.309624,0.583056 -0.224023,0.336643 -0.727289,0.605544 l -0.557927,0.298107 0.111233,-2.246964 0.546618,-0.292065 q 0.50892,-0.271922 0.783749,-0.115047 0.274921,0.155022 0.249457,0.669409 z m -0.509511,0.914036 q 0.218829,-0.342909 0.234549,-0.660456 0.01581,-0.319403 -0.0286,-0.460189 -0.04243,-0.143652 -0.191665,-0.242895 -0.149137,-0.101102 -0.544964,0.110397 l -0.294042,0.15711 -0.08954,1.808715 0.301583,-0.161139 q 0.395826,-0.211494 0.612678,-0.551539 z"
         style="font-family:Meera;-inkscape-font-specification:Meera;fill:none;stroke:#030303;stroke-width:0.111682;stroke-miterlimit:4;stroke-dasharray:none;stroke-opacity:1"
         id="path26995" />
    </g>
  </g>
</svg>
